<svg width="53" height="104" viewBox="0 0 53 104" fill="none" xmlns="http://www.w3.org/2000/svg">
<path fill-rule="evenodd" clip-rule="evenodd" d="M22.3055 66.7528C26.8675 68.3595 35.7152 69.8999 42.1448 61.2212C42.662 60.5233 43.1634 59.7592 43.6457 58.9239L34.1541 53.4438C33.9534 54.221 33.6508 55.1297 33.2432 56.0818C31.5363 60.0678 27.99 64.8148 22.392 63.8585C22.221 63.8294 22.0481 63.7949 21.8733 63.7549L19.3169 65.4428C19.3169 65.4428 20.045 65.8632 21.2761 66.3631C21.3914 66.4099 21.5112 66.4573 21.6352 66.5053C21.8466 66.5871 22.0704 66.67 22.3055 66.7528ZM29.1698 65.2601C31.036 65.2676 32.9869 64.9258 34.8731 63.9932C36.4992 63.1893 38.1769 61.8974 39.7543 59.841L35.6308 57.4604C34.8639 59.1837 33.7924 61.0194 32.3813 62.5982C31.4793 63.6071 30.4065 64.5384 29.1698 65.2601Z" fill="url(#paint0_linear)"/>
<path fill-rule="evenodd" clip-rule="evenodd" d="M20.835 44.7847C17.1627 47.9322 11.4048 54.8242 15.7059 64.732C16.0518 65.5286 16.4627 66.3449 16.945 67.1804L26.4366 61.7004C25.864 61.1381 25.2283 60.4216 24.6076 59.5925C22.009 56.1214 19.6711 50.6768 23.2983 46.3067C23.4091 46.1733 23.5254 46.0408 23.6475 45.9095L23.4639 42.8516C23.4639 42.8516 22.7358 43.2719 21.6874 44.0882C21.5891 44.1646 21.4881 44.2446 21.3846 44.328C21.2081 44.4702 21.0243 44.6225 20.835 44.7847ZM18.6956 51.4758C17.7561 53.0883 17.0766 54.9486 16.9411 57.0484C16.8244 58.8586 17.1043 60.9576 18.0965 63.3517L22.2199 60.9711C21.1109 59.4452 20.0568 57.5994 19.3952 55.5879C18.9725 54.3024 18.7023 52.9075 18.6956 51.4758Z" fill="url(#paint1_linear)"/>
<path fill-rule="evenodd" clip-rule="evenodd" d="M25.7385 40.1511C36.4693 41.3801 39.5591 49.8126 40.4487 54.5667C40.4946 54.8116 40.5346 55.047 40.5695 55.271C40.5899 55.4023 40.6087 55.5298 40.6258 55.653C40.7212 56.3401 40.7666 56.8976 40.7885 57.2736L37.7256 55.5052C35.602 50.5748 29.9241 49.9293 25.7385 50.4299C24.7102 50.553 23.7719 50.7452 22.9985 50.96V40C23.9632 40 24.8756 40.0523 25.7385 40.1511ZM31.775 45.0626C33.5258 46.2298 34.7972 47.7484 35.7238 49.3684C34.4805 48.6582 33.1375 48.1948 31.8128 47.9182C29.74 47.4854 27.6144 47.4754 25.7385 47.6728V42.9115C28.308 43.2493 30.2657 44.0564 31.775 45.0626Z" fill="url(#paint2_linear)"/>
<rect x="1.5" y="1.5" width="50" height="101" rx="7.5" stroke="#8235FF" stroke-width="3"/>
<defs>
<linearGradient id="paint0_linear" x1="39.5671" y1="57.1737" x2="20.7313" y2="66.5916" gradientUnits="userSpaceOnUse">
<stop stop-color="#5F2EEA"/>
<stop offset="1" stop-color="#972EEA"/>
</linearGradient>
<linearGradient id="paint1_linear" x1="19.0696" y1="63.8218" x2="20.1776" y2="45.54" gradientUnits="userSpaceOnUse">
<stop stop-color="#5F2EEA"/>
<stop offset="1" stop-color="#972EEA"/>
</linearGradient>
<linearGradient id="paint2_linear" x1="24.0557" y1="44.4319" x2="40.6754" y2="57.1738" gradientUnits="userSpaceOnUse">
<stop stop-color="#5F2EEA"/>
<stop offset="1" stop-color="#972EEA"/>
</linearGradient>
</defs>
</svg>
