<?xml version="1.0" standalone="no"?>
<!DOCTYPE svg PUBLIC "-//W3C//DTD SVG 20010904//EN"
 "http://www.w3.org/TR/2001/REC-SVG-20010904/DTD/svg10.dtd">
<svg version="1.0" xmlns="http://www.w3.org/2000/svg"
 width="256.000000pt" height="256.000000pt" viewBox="0 0 256.000000 256.000000"
 preserveAspectRatio="xMidYMid meet">
<metadata>
Created by potrace 1.14, written by Peter Selinger 2001-2017
</metadata>
<g transform="translate(0.000000,256.000000) scale(0.100000,-0.100000)"
fill="#000000" stroke="none">
<path d="M948 2253 c-3 -4 -4 -52 -3 -105 l1 -98 -80 -62 c-282 -217 -477
-523 -512 -805 -8 -63 -8 -243 1 -283 3 -14 8 -41 11 -60 13 -79 60 -212 111
-318 l55 -113 31 19 c122 73 155 89 169 81 64 -36 286 -111 368 -125 14 -2 34
-6 46 -9 37 -8 158 -19 219 -19 388 0 692 178 943 551 46 68 47 64 -33 109
-113 62 -125 72 -126 107 -2 71 -12 133 -39 239 -116 453 -394 750 -799 853
-35 9 -78 18 -95 20 -17 3 -41 7 -53 9 -49 10 -211 17 -215 9z m337 -225 c65
-18 204 -75 215 -88 3 -3 28 -20 55 -37 67 -43 153 -129 214 -216 36 -52 36
-67 -1 -44 -25 17 -198 79 -198 72 0 -2 -11 0 -24 5 -40 15 -163 25 -293 23
l-123 -2 0 160 0 161 43 -7 c23 -4 74 -16 112 -27z m-340 -372 c-1 -80 2 -143
5 -141 8 5 47 13 145 30 118 19 339 13 440 -14 121 -32 217 -83 289 -155 55
-54 124 -151 114 -161 -2 -2 -53 25 -113 60 -61 36 -113 65 -117 65 -4 0 -15
-26 -24 -57 -9 -32 -20 -65 -25 -73 -4 -8 -24 -51 -44 -95 -92 -201 -243 -369
-395 -438 -69 -31 -127 -44 -214 -46 -81 -2 -90 5 -38 32 69 36 193 110 198
118 3 5 -16 33 -42 62 -229 255 -333 571 -262 797 16 52 71 160 82 160 0 0 1
-65 1 -144z m-290 -206 c-7 -12 13 -141 32 -210 25 -89 86 -222 146 -318 l56
-90 -139 -80 -139 -80 -14 37 c-56 138 -79 353 -52 486 20 103 90 279 106 269
5 -3 7 -9 4 -14z m1264 -445 c62 -36 116 -65 120 -65 4 0 15 -8 25 -19 16 -17
13 -22 -55 -95 -164 -176 -350 -266 -576 -280 -35 -2 -63 -3 -63 -2 0 2 22 17
50 35 120 78 261 248 351 423 19 38 35 68 35 68 1 0 52 -29 113 -65z"/>
</g>
</svg>
