<svg width="32" height="32" viewBox="0 0 32 32" fill="none" xmlns="http://www.w3.org/2000/svg">
<path fill-rule="evenodd" clip-rule="evenodd" d="M11.6292 25.8087C15.3481 27.1184 22.5607 28.3742 27.8022 21.2994C28.2237 20.7304 28.6325 20.1076 29.0256 19.4266L21.2881 14.9593C21.1246 15.5928 20.8778 16.3336 20.5455 17.1097C19.1542 20.3591 16.2632 24.2288 11.6997 23.4493C11.5603 23.4255 11.4194 23.3974 11.2769 23.3648L9.1929 24.7407C9.1929 24.7407 9.78644 25.0834 10.7901 25.4909C10.8841 25.5291 10.9817 25.5678 11.0827 25.6069C11.2551 25.6736 11.4375 25.7412 11.6292 25.8087ZM17.225 24.5918C18.7463 24.5979 20.3366 24.3194 21.8743 23.5591C23.1999 22.9036 24.5675 21.8505 25.8534 20.1742L22.492 18.2335C21.8667 19.6384 20.9933 21.1349 19.8429 22.4218C19.1077 23.2443 18.2331 24.0035 17.225 24.5918Z" fill="url(#paint0_linear)"/>
<path fill-rule="evenodd" clip-rule="evenodd" d="M10.4304 7.90062C7.43678 10.4664 2.74296 16.0848 6.24919 24.1615C6.53115 24.811 6.86616 25.4764 7.25934 26.1574L14.9968 21.6902C14.53 21.2318 14.0119 20.6477 13.5059 19.9718C11.3875 17.1423 9.48164 12.7037 12.4385 9.14134C12.5288 9.03255 12.6236 8.92457 12.7231 8.81749L12.5735 6.3247C12.5735 6.3247 11.98 6.66738 11.1253 7.3328C11.0452 7.39513 10.9628 7.46029 10.8785 7.52827C10.7345 7.64422 10.5848 7.76836 10.4304 7.90062ZM8.68643 13.3551C7.92048 14.6696 7.36656 16.1861 7.25616 17.8979C7.16099 19.3736 7.3892 21.0846 8.19798 23.0363L11.5594 21.0956C10.6554 19.8518 9.79604 18.347 9.25674 16.7073C8.91209 15.6594 8.69187 14.5223 8.68643 13.3551Z" fill="url(#paint1_linear)"/>
<path fill-rule="evenodd" clip-rule="evenodd" d="M14.4276 4.12316C23.1753 5.12503 25.6941 11.9992 26.4193 15.8747C26.4567 16.0744 26.4893 16.2662 26.5177 16.4488C26.5344 16.5559 26.5497 16.6598 26.5636 16.7603C26.6414 17.3203 26.6785 17.7748 26.6963 18.0813L24.1994 16.6397C22.4682 12.6205 17.8397 12.0943 14.4276 12.5024C13.5893 12.6027 12.8244 12.7594 12.194 12.9345V4C12.9803 4 13.7241 4.04259 14.4276 4.12316ZM19.3485 8.12702C20.7758 9.07852 21.8122 10.3165 22.5676 11.6371C21.554 11.0582 20.4592 10.6804 19.3793 10.4549C17.6896 10.102 15.9568 10.0939 14.4276 10.2549V6.37344C16.5222 6.64885 18.1181 7.30673 19.3485 8.12702Z" fill="url(#paint2_linear)"/>
<defs>
<linearGradient id="paint0_linear" x1="25.7007" y1="17.9998" x2="10.3459" y2="25.6772" gradientUnits="userSpaceOnUse">
<stop stop-color="#5F2EEA"/>
<stop offset="1" stop-color="#972EEA"/>
</linearGradient>
<linearGradient id="paint1_linear" x1="8.99126" y1="23.4195" x2="9.89448" y2="8.51632" gradientUnits="userSpaceOnUse">
<stop stop-color="#5F2EEA"/>
<stop offset="1" stop-color="#972EEA"/>
</linearGradient>
<linearGradient id="paint2_linear" x1="13.0557" y1="7.61289" x2="26.6041" y2="18" gradientUnits="userSpaceOnUse">
<stop stop-color="#5F2EEA"/>
<stop offset="1" stop-color="#972EEA"/>
</linearGradient>
</defs>
</svg>
