<svg width="287" height="80" viewBox="0 0 287 80" fill="none" xmlns="http://www.w3.org/2000/svg">
<path fill-rule="evenodd" clip-rule="evenodd" d="M24.0724 72.5033C35.6571 76.5833 58.1219 80.5033 74.4495 58.4576C75.8285 56.5869 77.1003 54.6397 78.259 52.6252L54.1562 38.709C53.5567 40.9964 52.785 43.2352 51.8476 45.4061C47.5124 55.528 38.5143 67.5814 24.2895 65.1433C23.8552 65.0671 23.4171 64.9795 22.9752 64.8804L16.499 69.1661C18.1072 70.0474 19.7688 70.8273 21.4743 71.5014L22.3847 71.8633C22.8952 72.0804 23.4743 72.2938 24.0724 72.5033ZM41.5009 68.7128C46.5112 68.7862 51.469 67.685 55.9771 65.4976C60.1066 63.4556 64.3581 60.1642 68.3695 54.9528L57.9009 48.9071C55.832 53.6517 53.0493 58.0518 49.6495 61.9547C47.3013 64.6175 44.5521 66.8976 41.5009 68.7128Z" fill="url(#paint0_linear)"/>
<path fill-rule="evenodd" clip-rule="evenodd" d="M20.3354 16.72C11.0135 24.72 -3.60743 42.2134 7.31448 67.3867C8.24286 69.5179 9.2935 71.5938 10.4611 73.6039L34.5602 59.6915C32.8828 58.0239 31.3307 56.2349 29.9164 54.3391C23.3183 45.5086 17.3831 31.6839 26.5907 20.5715C26.8726 20.2324 27.1697 19.8972 27.4783 19.562L27.0135 11.8096C25.4494 12.7618 23.9468 13.8115 22.5145 14.9524C22.2631 15.1467 22.0078 15.3334 21.7526 15.562C21.2904 15.9226 20.818 16.3086 20.3354 16.72ZM14.8954 33.7105C12.3243 38.0147 10.799 42.862 10.4421 47.8629C10.145 52.4572 10.8573 57.7867 13.3754 63.8629L23.8478 57.8172C20.7729 53.6565 18.356 49.0478 16.6821 44.1524C15.5464 40.7861 14.9436 37.263 14.8954 33.7105Z" fill="url(#paint1_linear)"/>
<path fill-rule="evenodd" clip-rule="evenodd" d="M32.7998 4.95242C60.0456 8.07242 67.8932 29.4858 70.1522 41.5543C70.2665 42.1791 70.3694 42.7772 70.457 43.3448C70.5103 43.6762 70.5598 44 70.6017 44.3162C70.8456 46.0572 70.9598 47.4743 71.0132 48.4305L63.2379 43.9391C57.8437 31.421 43.4284 29.7791 32.7998 31.0515C30.4496 31.3261 28.1232 31.7756 25.8398 32.3962V4.57147C28.1652 4.56579 30.489 4.69299 32.7998 4.95242ZM48.1141 17.4248C52.2657 20.2346 55.7 23.9794 58.1408 28.3581C55.044 26.6208 51.6942 25.379 48.2132 24.6781C43.1376 23.6831 37.9393 23.4724 32.7998 24.0534V11.9658C39.3141 12.8229 44.2817 14.8572 48.1141 17.4248Z" fill="url(#paint2_linear)"/>
<path d="M95 60.51V31.5116C96.555 28.6537 99.5389 27.2248 103.952 27.2248H110.76L114.542 30.0616V34.7896H106.284C105.023 34.7896 104.162 35.1048 103.7 35.7352V60.51H95Z" fill="#FCFCFC"/>
<path d="M117.369 50.2975V37.4373C117.369 30.629 120.773 27.2248 127.582 27.2248H135.777C142.585 27.2248 145.989 30.629 145.989 37.4373V47.0824H126.069V50.9279C126.069 52.2727 126.741 52.9452 128.086 52.9452H144.729V57.6732L140.946 60.51H127.582C120.773 60.51 117.369 57.1058 117.369 50.2975ZM126.069 40.4002H137.29V36.8069C137.29 35.4621 136.617 34.7896 135.273 34.7896H128.086C126.741 34.7896 126.069 35.4621 126.069 36.8069V40.4002Z" fill="#FCFCFC"/>
<path d="M148.295 28.5487L149.178 27.2248H156.68L164.37 52.9452H165.001L172.692 27.2248H180.193L181.076 28.5487L171.053 60.51H158.319L148.295 28.5487Z" fill="#FCFCFC"/>
<path d="M191.695 60.51C184.886 60.51 181.482 57.1688 181.482 50.4866C181.482 43.8043 184.886 40.4632 191.695 40.4632H200.394V36.8069C200.394 35.4621 199.722 34.7896 198.377 34.7896H185.012V30.0616L188.795 27.2248H198.881C205.69 27.2248 209.094 30.629 209.094 37.4373V60.51H191.695ZM190.182 50.9279C190.182 52.2727 190.854 52.9452 192.199 52.9452H200.394V47.1455H192.199C190.854 47.1455 190.182 47.8179 190.182 49.1628V50.9279Z" fill="#FCFCFC"/>
<path d="M214.789 50.2975V27.2248H223.489V50.9279C223.489 52.2727 224.161 52.9452 225.506 52.9452H234.71V27.2248H243.41V60.51H225.002C218.194 60.51 214.789 57.1058 214.789 50.2975Z" fill="#FCFCFC"/>
<path d="M249.354 48.4063V13.8604H258.054V49.2888C258.054 51.8945 259.398 53.3444 262.088 53.6386V61.1404C253.599 61.1404 249.354 56.8957 249.354 48.4063Z" fill="#FCFCFC"/>
<path d="M266.004 50.2975V17.0123H274.703V27.2248H285.546V34.7896H274.703V50.9279C274.703 52.2727 275.376 52.9452 276.721 52.9452H286.177V57.6732L282.394 60.51H276.216C269.408 60.51 266.004 57.1058 266.004 50.2975Z" fill="#FCFCFC"/>
<defs>
<linearGradient id="paint0_linear" x1="20.1904" y1="74.286" x2="65.7142" y2="44.9527" gradientUnits="userSpaceOnUse">
<stop stop-color="#AD16FF"/>
<stop offset="1" stop-color="#5F2EEA"/>
</linearGradient>
<linearGradient id="paint1_linear" x1="28.9525" y1="18.0953" x2="27.2323" y2="53.4685" gradientUnits="userSpaceOnUse">
<stop stop-color="#AD16FF"/>
<stop offset="1" stop-color="#5F2EEA"/>
</linearGradient>
<linearGradient id="paint2_linear" x1="70.857" y1="47.238" x2="25.9046" y2="14.0951" gradientUnits="userSpaceOnUse">
<stop stop-color="#AD16FF"/>
<stop offset="1" stop-color="#5F2EEA"/>
</linearGradient>
</defs>
</svg>
